<svg width="22" height="22" viewBox="0 0 22 22" fill="none" xmlns="http://www.w3.org/2000/svg">
<path d="M15.125 11C15.125 9.85417 14.724 8.88021 13.9219 8.07812C13.1198 7.27604 12.1458 6.875 11 6.875C9.85417 6.875 8.88021 7.27604 8.07812 8.07812C7.27604 8.88021 6.875 9.85417 6.875 11C6.875 12.1458 7.27604 13.1198 8.07812 13.9219C8.88021 14.724 9.85417 15.125 11 15.125C12.1458 15.125 13.1198 14.724 13.9219 13.9219C14.724 13.1198 15.125 12.1458 15.125 11ZM0 9.625V19.25C0 20.0091 0.268555 20.6572 0.805664 21.1943C1.34277 21.7314 1.99089 22 2.75 22H19.25C20.0091 22 20.6572 21.7314 21.1943 21.1943C21.7314 20.6572 22 20.0091 22 19.25V2.75C22 1.99089 21.7314 1.34277 21.1943 0.805664C20.6572 0.268555 20.0091 0 19.25 0H2.75C1.99089 0 1.34277 0.268555 0.805664 0.805664C0.268555 1.34277 0 1.99089 0 2.75V6.875H5.5C6.14453 6.02995 6.94662 5.36035 7.90625 4.86621C8.86589 4.37207 9.89714 4.125 11 4.125C12.1029 4.125 13.1341 4.37207 14.0938 4.86621C15.0534 5.36035 15.8555 6.02995 16.5 6.875H22V9.625H17.7461C17.832 10.0833 17.875 10.5417 17.875 11C17.875 12.2461 17.5671 13.3955 16.9512 14.4482C16.3353 15.501 15.501 16.3353 14.4482 16.9512C13.3955 17.5671 12.2461 17.875 11 17.875C9.75391 17.875 8.60449 17.5671 7.55176 16.9512C6.49902 16.3353 5.66471 15.501 5.04883 14.4482C4.43294 13.3955 4.125 12.2461 4.125 11C4.125 10.5417 4.16797 10.0833 4.25391 9.625H0Z" fill="#009FAC"/>
</svg>
