<svg width="21" height="22" viewBox="0 0 21 22" fill="none" xmlns="http://www.w3.org/2000/svg">
<path d="M17.3531 15.0002C16.9041 15.0019 16.4601 15.0943 16.0477 15.2719C15.6352 15.4494 15.263 15.7085 14.9531 16.0335L6.82647 11.9668C7.02638 11.3607 7.02638 10.7063 6.82647 10.1002L14.9665 5.96016C15.5495 6.57458 16.3402 6.95027 17.1848 7.0142C18.0294 7.07813 18.8676 6.82574 19.5365 6.30609C20.2054 5.78644 20.6572 5.03664 20.8041 4.20244C20.9509 3.36825 20.7824 2.50924 20.3312 1.79238C19.88 1.07553 19.1784 0.552043 18.3627 0.323672C17.5471 0.0952998 16.6756 0.178359 15.9178 0.556704C15.16 0.935049 14.5699 1.58165 14.2622 2.37083C13.9546 3.16001 13.9513 4.03539 14.2531 4.82683L6.19314 8.92683C5.75783 8.39446 5.16853 8.00975 4.50601 7.82545C3.84349 7.64114 3.14018 7.66625 2.49249 7.89734C1.8448 8.12843 1.28444 8.55418 0.888212 9.11624C0.491987 9.6783 0.279297 10.3491 0.279297 11.0368C0.279297 11.7245 0.491987 12.3954 0.888212 12.9574C1.28444 13.5195 1.8448 13.9452 2.49249 14.1763C3.14018 14.4074 3.84349 14.4325 4.50601 14.2482C5.16853 14.0639 5.75783 13.6792 6.19314 13.1468L14.2331 17.1935C14.0973 17.5583 14.0273 17.9443 14.0265 18.3335C14.0265 18.9928 14.222 19.6372 14.5882 20.1854C14.9545 20.7336 15.4751 21.1608 16.0842 21.4131C16.6933 21.6654 17.3635 21.7314 18.0101 21.6028C18.6567 21.4742 19.2507 21.1567 19.7168 20.6905C20.183 20.2243 20.5005 19.6304 20.6291 18.9838C20.7577 18.3372 20.6917 17.667 20.4394 17.0579C20.1871 16.4488 19.7599 15.9282 19.2117 15.5619C18.6635 15.1957 18.0191 15.0002 17.3598 15.0002H17.3531Z" fill="white"/>
</svg>
