<svg width="22" height="22" viewBox="0 0 22 22" fill="none" xmlns="http://www.w3.org/2000/svg">
<path fill-rule="evenodd" clip-rule="evenodd" d="M3 0C1.34315 0 0 1.34315 0 3V19C0 20.6569 1.34315 22 3 22H19C20.6569 22 22 20.6569 22 19V3C22 1.34315 20.6569 0 19 0H3ZM2.7938 10.208L17.8525 4.09863C18.5396 3.77158 19.2038 4.27288 18.9414 5.38002L16.3772 18.0939C16.198 18.9982 15.6808 19.2126 14.9605 18.7953L11.0544 15.7598L9.17656 17.681C9.16955 17.6881 9.16259 17.6952 9.15566 17.7023C8.94617 17.9154 8.77252 18.0921 8.39432 18.0921L8.66101 13.8994L8.65931 13.8985H8.66101L15.9084 7.01706C16.226 6.72039 15.8396 6.57473 15.4166 6.84549L6.47142 12.7833L2.60524 11.5144C1.77204 11.2455 1.7661 10.6423 2.7938 10.208Z" fill="#009FAC"/>
</svg>
