<svg width="22" height="22" viewBox="0 0 22 22" fill="none" xmlns="http://www.w3.org/2000/svg">
<path d="M22 19.5556V2.44444C22 1.1 20.8963 0 19.5494 0H2.45056C1.045 0 0 1.04256 0 2.44444V19.5556C0 20.9587 1.045 22 2.45056 22H19.5494C20.198 21.999 20.8198 21.7414 21.279 21.2833C21.7382 20.8253 21.9974 20.2041 22 19.5556ZM17.336 12.9641C17.336 12.9641 18.7196 14.3293 19.0606 14.9624C19.0703 14.9759 19.074 14.9881 19.0777 14.993C19.2158 15.2252 19.2512 15.4086 19.1816 15.543C19.0667 15.7667 18.6756 15.8791 18.5423 15.8889H16.0991C15.928 15.8889 15.5736 15.8449 15.1433 15.5479C14.8133 15.3181 14.487 14.938 14.1692 14.5677C13.695 14.0177 13.2843 13.541 12.8712 13.541C12.8188 13.5409 12.7668 13.5496 12.7172 13.5667C12.4031 13.6669 12.0047 14.113 12.0047 15.3047C12.0047 15.6774 11.7113 15.8901 11.5036 15.8901H10.384C10.0027 15.8901 8.01656 15.7569 6.25778 13.9003C4.09933 11.627 2.16089 7.06689 2.14378 7.02656C2.02156 6.732 2.27456 6.57189 2.54956 6.57189H5.01844C5.34967 6.57189 5.456 6.77233 5.53178 6.952C5.61733 7.15611 5.94 7.97989 6.468 8.90633C7.32722 10.4133 7.85644 11.0269 8.27811 11.0269C8.35696 11.0264 8.43438 11.0058 8.503 10.967C9.05422 10.6627 8.95156 8.69733 8.92711 8.29156C8.92711 8.21456 8.92589 7.41278 8.64478 7.02778C8.44189 6.74911 8.09844 6.64278 7.89067 6.60244C7.97539 6.4857 8.08688 6.39098 8.21578 6.32622C8.59344 6.138 9.27422 6.11111 9.95133 6.11111H10.3278C11.0623 6.12089 11.253 6.16856 11.5182 6.23578C12.0548 6.36411 12.0658 6.71244 12.0181 7.898C12.0047 8.23533 11.99 8.61789 11.99 9.06644C11.99 9.163 11.9863 9.26933 11.9863 9.37933C11.9692 9.98556 11.9497 10.6712 12.3774 10.9523C12.4328 10.987 12.4967 11.0056 12.562 11.0061C12.7111 11.0061 13.1572 11.0061 14.366 8.932C14.8977 8.01655 15.3071 6.93611 15.3352 6.85544C15.3779 6.76823 15.4398 6.69177 15.5161 6.63178C15.5787 6.59926 15.6485 6.58288 15.719 6.58411H18.6218C18.9396 6.58411 19.1547 6.63178 19.195 6.75278C19.2647 6.94711 19.1816 7.53989 17.8554 9.33167L17.2651 10.1139C16.0624 11.6881 16.0624 11.7688 17.336 12.9641V12.9641Z" fill="#009FAC"/>
</svg>
