<svg width="30" height="41" viewBox="0 0 30 41" fill="none" xmlns="http://www.w3.org/2000/svg">
<path d="M4.65928 31.4218L0.449277 38.2078L0.897277 40.4273L3.01728 39.9533L7.22528 33.1716C6.32039 32.6717 5.46144 32.0859 4.65928 31.4218ZM22.4833 29.052C22.5113 28.9914 22.5293 28.9246 22.5553 28.8599C22.6613 28.6156 22.7553 28.3713 22.8313 28.1145C22.8433 28.0686 22.8493 28.0226 22.8633 27.9809C22.9413 27.7002 23.0067 27.416 23.0593 27.129V27.0851C23.4493 24.6443 22.7693 21.9216 21.2133 19.4619L23.4333 15.8831C25.9913 16.2235 28.2033 15.5511 29.2673 13.8327C31.1133 10.8615 28.8673 5.91513 24.2573 2.78107C19.6433 -0.355068 14.4113 -0.486611 12.5693 2.4804C11.5013 4.2009 11.8133 6.58745 13.1553 8.89676L10.9313 12.4755C8.15328 11.989 5.49928 12.4421 3.52528 13.8119C3.51328 13.816 3.49928 13.8202 3.49128 13.8286C3.26063 13.9923 3.03895 14.1693 2.82728 14.3589C2.79328 14.3881 2.75328 14.4153 2.72528 14.4445C2.53327 14.6216 2.35224 14.8113 2.18328 15.0124C2.14328 15.0626 2.08728 15.1064 2.04928 15.1586C1.83627 15.4104 1.64235 15.6792 1.46928 15.9625C-1.29872 20.4161 1.06328 27.1561 6.73528 31.0147C12.4113 34.8733 19.2553 34.3847 22.0173 29.931C22.1913 29.6492 22.3513 29.3548 22.4833 29.052ZM20.8533 8.25992C19.0793 7.05516 18.2133 5.1551 18.9233 4.0088C19.6313 2.86668 21.6453 2.91888 23.4153 4.12364C25.1933 5.3284 26.0513 7.23264 25.3453 8.37476C24.6393 9.51688 22.6293 9.46468 20.8533 8.25992Z" fill="#009FAC"/>
</svg>
