<svg width="24" height="24" viewBox="0 0 24 24" fill="none" xmlns="http://www.w3.org/2000/svg">
<path d="M15.442 0.718018C14.7581 0.718283 14.1023 0.990083 13.6187 1.47368C13.1351 1.95728 12.8633 2.61311 12.863 3.29702C12.8635 3.76459 12.991 4.22325 13.232 4.62396C13.4729 5.02467 13.8182 5.35237 14.231 5.57202L12.809 8.27002C12.4612 8.15684 12.0978 8.0988 11.732 8.09802C10.8024 8.09802 9.91091 8.46729 9.25359 9.12461C8.59628 9.78192 8.227 10.6734 8.227 11.603C8.22861 11.8537 8.25711 12.1034 8.312 12.348L5.482 13.384C5.21482 12.9587 4.84416 12.6082 4.40467 12.3651C3.96519 12.122 3.47123 11.9943 2.969 11.994C2.18183 11.9943 1.42696 12.307 0.870246 12.8636C0.313537 13.4201 0.000530038 14.1748 0 14.962C0 15.7497 0.31291 16.5051 0.869893 17.0621C1.42688 17.6191 2.18231 17.932 2.97 17.932C3.75752 17.9318 4.51269 17.6187 5.06946 17.0618C5.62623 16.5048 5.939 15.7495 5.939 14.962C5.93784 14.7487 5.9137 14.5362 5.867 14.328L8.583 13.135C8.87041 13.726 9.31815 14.2242 9.87512 14.5729C10.4321 14.9216 11.0759 15.1066 11.733 15.107C12.5029 15.1061 13.2511 14.8516 13.862 14.383L16.138 16.55C15.6501 17.265 15.3891 18.1104 15.389 18.976C15.389 19.5414 15.5004 20.1013 15.7168 20.6237C15.9332 21.1461 16.2504 21.6207 16.6503 22.0205C17.0501 22.4202 17.5248 22.7373 18.0472 22.9536C18.5697 23.1699 19.1296 23.2811 19.695 23.281C20.8366 23.281 21.9314 22.8276 22.7387 22.0205C23.5461 21.2133 23.9997 20.1186 24 18.977C24 17.8353 23.5464 16.7403 22.7391 15.9329C21.9317 15.1256 20.8368 14.672 19.695 14.672C18.7045 14.6727 17.7445 15.015 16.977 15.641L14.553 13.677C14.9961 13.0762 15.2357 12.3496 15.237 11.603C15.2371 11.034 15.0987 10.4736 14.8337 9.97004C14.5687 9.46653 14.1851 9.0351 13.716 8.71302L14.92 5.82202C15.0917 5.85771 15.2666 5.87581 15.442 5.87602C16.1263 5.87602 16.7825 5.6042 17.2663 5.12035C17.7502 4.63651 18.022 3.98028 18.022 3.29602C18.0215 2.61211 17.7494 1.95639 17.2656 1.47297C16.7818 0.989563 16.1259 0.718017 15.442 0.718018Z" fill="#009FAC"/>
</svg>
