<svg width="1110" height="146" viewBox="0 0 1110 146" fill="none" xmlns="http://www.w3.org/2000/svg">
<path fill-rule="evenodd" clip-rule="evenodd" d="M25.4589 0.581502C22.7146 4.38073 21.1707 8.23573 20.6581 12.5691C20.4593 14.2498 20.5677 17.909 20.8607 19.4075C21.5221 22.7891 22.9626 26.2348 24.8622 28.9789C25.8547 30.4126 25.8512 30.4114 26.491 29.5703C29.6105 25.4695 31.501 19.4272 31.255 14.343C31.0133 9.34735 29.383 4.82104 26.2949 0.572227L25.8791 0L25.4589 0.581502ZM27.3431 4.82421C29.1979 8.39694 30.0428 11.815 30.0428 15.7464C30.0428 17.1618 29.7208 20.4613 29.5699 20.5931C29.5424 20.6171 29.4762 19.9071 29.4229 19.0153C29.2423 15.9889 28.7011 13.5115 27.669 10.983C27.0845 9.55152 26.0005 7.44798 25.847 7.44798C25.6924 7.44798 24.6659 9.45243 24.1286 10.804C23.0092 13.6193 22.5226 15.759 22.4081 18.3702C22.318 20.4221 22.2132 20.9571 22.0615 20.1397C22.0054 19.8377 21.8826 18.6508 21.7888 17.502C21.4953 13.9122 21.9876 10.6785 23.3527 7.23052C24.0101 5.56948 25.1673 3.23713 25.6594 2.58131L25.8771 2.29098L26.2933 2.94742C26.5223 3.3084 26.9947 4.15301 27.3431 4.82421ZM35.3574 22.9466V31.245H37.1057H38.8539V23.9839V16.7227H40.5322H42.2105V15.6854V14.6481H38.784H35.3574V22.9466ZM44.3084 14.8203C44.3084 14.915 43.9918 17.7294 43.6049 21.0747C42.7084 28.8252 42.4912 30.7666 42.4906 31.0315C42.4902 31.2233 42.6656 31.245 44.2194 31.245H45.9485L46.0421 29.9331C46.0935 29.2115 46.1737 28.2232 46.2203 27.7365L46.305 26.8517H47.1789H48.0528L48.1337 27.3704C48.1781 27.6556 48.2567 28.6442 48.3082 29.567L48.4021 31.245H50.1925H51.983L51.9173 30.8484C51.881 30.6302 51.4768 27.1568 51.019 23.1296C50.5611 19.1024 50.1481 15.5467 50.1013 15.2278L50.0163 14.6481H47.1624C44.7989 14.6481 44.3084 14.6776 44.3084 14.8203ZM55.6372 14.775C54.8789 14.9134 54.403 15.2046 54.0286 15.7593C53.7876 16.1162 53.7423 16.4398 53.7016 18.0956L53.6543 20.0177H55.4148H57.1754L57.1775 18.7058C57.1796 17.3295 57.3365 16.8188 57.78 16.7442C58.371 16.645 58.4341 16.8798 58.4341 19.1783C58.4341 21.8923 58.4629 21.8482 56.6859 21.8482H55.4971V22.7635V23.6788H56.5553C57.5691 23.6788 58.1057 23.8045 58.3271 24.0937C58.3836 24.1675 58.4308 25.274 58.432 26.5527C58.4343 29.0159 58.3954 29.1704 57.7733 29.1704C57.2922 29.1704 57.1754 28.7518 57.1754 27.0268V25.5093H55.4158H53.6563L53.7027 27.6755C53.7543 30.0793 53.8442 30.373 54.6908 30.8998C55.1221 31.1683 55.288 31.1861 57.6887 31.222C60.0334 31.257 60.274 31.2404 60.7987 31.0068C61.1745 30.8395 61.4748 30.5782 61.684 30.2366C61.9818 29.7502 62.0029 29.5568 62.0404 26.9738C62.0756 24.5354 62.0521 24.1804 61.8306 23.8033C61.5146 23.2657 60.7661 22.8245 60.1699 22.8245C59.5101 22.8245 59.4538 22.6166 60.0886 22.523C60.8976 22.4038 61.4945 22.0282 61.7958 21.4491C62.0265 21.0057 62.0646 20.6407 62.0665 18.8584C62.0707 15.1377 61.7139 14.751 58.2243 14.6929C57.1474 14.6748 55.9832 14.7118 55.6372 14.775ZM64.5879 22.9466V31.245H66.4061H68.2242V23.9839V16.7227H68.8536H69.483V23.9839V31.245H71.2312H72.9794V22.9466V14.6481H68.7837H64.5879V22.9466ZM75.6018 14.7178C75.544 14.7689 75.4969 18.5085 75.4969 23.028V31.245H77.315H79.1332V28.4382V25.6314H80.5721C82.4375 25.6314 83.0863 25.3836 83.6087 24.472C83.9575 23.8632 83.9583 23.8537 83.9583 20.3228C83.9583 18.3763 83.9087 16.5795 83.8478 16.3296C83.7175 15.7937 83.1895 15.2086 82.5781 14.9227C82.2143 14.7526 81.5961 14.71 78.9234 14.6713C77.1542 14.6457 75.6595 14.6667 75.6018 14.7178ZM88.504 14.7743C87.678 14.9259 87.2443 15.2153 86.8604 15.8709L86.5457 16.4084V23.0076V29.6068L86.8604 30.1443C87.4351 31.1257 87.6124 31.1786 90.4665 31.2222C92.6984 31.2562 93.0356 31.2346 93.5828 31.0234C94.0683 30.8361 94.2665 30.6624 94.5319 30.1921L94.8673 29.5975V22.9466V16.2956L94.5508 15.7785C94.0287 14.926 93.4363 14.7406 91.0911 14.6961C90.0142 14.6756 88.85 14.7108 88.504 14.7743ZM97.4547 22.9436V31.245H99.2729H101.091L101.095 26.028C101.099 21.2118 101.181 20.1795 101.431 21.7872C101.483 22.1228 101.868 24.27 102.287 26.5587C102.706 28.8474 103.049 30.8382 103.049 30.9825C103.049 31.2345 103.108 31.245 104.515 31.245C105.921 31.245 105.984 31.2338 106.052 30.9704C106.149 30.5953 106.552 28.4068 107.259 24.411C107.586 22.5652 107.905 21.0028 107.968 20.9391C108.032 20.8754 108.084 23.1681 108.084 26.0341V31.245H109.902H111.72V22.9466V14.6481H109.421C108.156 14.6481 107.092 14.6894 107.057 14.7396C107.022 14.7899 106.7 16.259 106.342 18.0041C105.984 19.7492 105.541 21.891 105.358 22.7635C105.175 23.6361 104.946 24.7756 104.849 25.2958C104.752 25.8159 104.632 26.2415 104.583 26.2415C104.533 26.2415 104.413 25.8435 104.317 25.3568C104.22 24.8701 103.994 23.7581 103.814 22.8855C103.635 22.013 103.261 20.1733 102.982 18.7973C102.704 17.4214 102.399 15.9386 102.303 15.5024L102.13 14.7091L99.7922 14.6757L97.4547 14.6423V22.9436ZM17.1059 14.8987C8.46289 15.673 1.60478 21.3014 0.17724 28.7921C-0.110869 30.3034 -0.0367448 33.4497 0.319895 34.8451C2.04855 41.6106 7.97688 46.5786 15.7772 47.7984C17.5151 48.0701 20.4436 48.0667 22.2107 47.7909C25.7865 47.2327 29.2365 45.7507 31.7748 43.6823L32.84 42.8143V37.1517V31.4891H25.917H18.994V34.0054V36.5215L19.4859 36.1942C22.1069 34.4497 25.9581 35.1658 27.4961 37.6835C28.7613 39.7547 28.2846 41.8456 26.151 43.5843C24.2759 45.1123 21.626 46.0122 19.0066 46.0105C10.5973 46.0052 5.47718 38.0988 9.78357 31.7687C10.4612 30.7727 11.8907 29.4917 13.0932 28.8028C14.2666 28.1308 16.0246 27.5311 17.1758 27.4104C17.5989 27.366 18.1826 27.2995 18.473 27.2625L19.001 27.1954L18.9625 21.0133L18.924 14.8312L18.5744 14.8148C18.3821 14.8058 17.7213 14.8435 17.1059 14.8987ZM47.452 18.1567C47.5037 18.9454 47.6354 20.6614 47.7444 21.9703C47.8535 23.2791 47.9432 24.5284 47.9437 24.7466L47.9447 25.1432H47.1643H46.384L46.4636 24.3805C46.5074 23.9611 46.6414 22.1899 46.7614 20.4448C46.8814 18.6997 47.0091 17.1484 47.0453 16.9973C47.1996 16.3519 47.3642 16.8211 47.452 18.1567ZM80.1742 16.994C80.3574 17.2221 80.3919 17.7555 80.3919 20.35C80.3919 23.3027 80.3796 23.4455 80.1037 23.6862C79.943 23.8264 79.6798 23.921 79.5093 23.8998C79.2033 23.8618 79.2031 23.86 79.1661 20.2923L79.129 16.7227H79.5427C79.8118 16.7227 80.0326 16.8175 80.1742 16.994ZM91.1331 16.8692C91.3749 17.0802 91.3749 28.813 91.1331 29.024C90.8762 29.2481 90.3488 29.1982 90.1869 28.9344C90.093 28.7811 90.0422 26.6643 90.0422 22.9023C90.0422 17.7959 90.0683 17.0835 90.2619 16.9144C90.5237 16.6861 90.9008 16.6665 91.1331 16.8692ZM26.4816 19.3466C27.8286 22.4694 27.6614 26.3743 26.0669 29.0297L25.8814 29.3385L25.6371 28.926C24.4563 26.9336 24.011 23.7934 24.5725 21.4195C24.8219 20.3648 25.4476 18.7877 25.748 18.4566C25.9486 18.2355 26.061 18.3719 26.4816 19.3466ZM35.2176 42.2893V47.964H73.6088H112V42.2893V36.6146H73.6088H35.2176V42.2893ZM40.2223 40.0621L40.262 41.374H41.2363H42.2105V40.0316V38.6892H42.9797H43.749V42.2283V45.7673H42.9797H42.2105V44.1808V42.5944H41.2315H40.2525V44.1808V45.7673H39.4133H38.5742V42.2222V38.677L39.3784 38.7136L40.1826 38.7502L40.2223 40.0621ZM58.9936 39.2994V39.9096H57.595H56.1964V40.6418V41.374H57.4551H58.7138V41.9842V42.5944H57.4551H56.1964V43.6317V44.669H57.595H58.9936V45.2182V45.7673H56.8257H54.6579V42.2283V38.6892H56.8257H58.9936V39.2994ZM74.212 39.1469C74.253 39.5169 74.291 39.5435 74.7791 39.5435C75.1156 39.5435 75.5295 39.6692 75.9388 39.8958C76.8027 40.3738 77.2004 41.0963 77.2065 42.1993C77.2157 43.8427 76.2398 44.9131 74.7321 44.9131C74.2608 44.9131 74.2382 44.9327 74.2382 45.3402V45.7673H73.399H72.5598V45.3402C72.5598 44.9205 72.5498 44.9131 71.9778 44.9131C71.1806 44.9131 70.3357 44.4586 69.901 43.7962C69.4367 43.0884 69.4017 41.5727 69.8326 40.8327C70.2505 40.1151 71.0084 39.6424 71.8551 39.5715C72.551 39.5132 72.5598 39.5072 72.5598 39.0947V38.677L73.364 38.7136C74.1591 38.7499 74.1688 38.7548 74.212 39.1469ZM92.6296 39.2994V39.8486L91.6855 39.8847L90.7415 39.9207V42.8441V45.7673H89.9723H89.203V42.8384V39.9096H88.224H87.245V39.2967V38.684L89.9373 38.717L92.6296 38.7502V39.2994ZM104.727 40.0149V41.3406L105.63 41.4038C106.759 41.4829 107.34 41.772 107.759 42.4626C108.352 43.4413 108.074 44.8841 107.174 45.5024C106.823 45.7432 106.623 45.7673 104.988 45.7673H103.189V42.2283V38.6892H103.958H104.727V40.0149ZM71.5852 40.9429C71.3666 41.1459 71.2392 41.442 71.1941 41.8513C71.0627 43.0449 71.461 43.8147 72.2102 43.8147H72.5598V42.2283C72.5598 40.6491 72.5583 40.6418 72.2345 40.6418C72.0557 40.6418 71.7635 40.7773 71.5852 40.9429ZM74.2382 42.2283V43.8147H74.5776C75.3321 43.8147 75.7953 42.7035 75.4953 41.6126C75.3254 40.9942 74.9591 40.6418 74.4867 40.6418C74.2612 40.6418 74.2382 40.7893 74.2382 42.2283ZM104.757 43.6622L104.797 44.73L105.413 44.7181C106.174 44.7034 106.406 44.4649 106.406 43.6965C106.406 42.8895 106.121 42.5944 105.343 42.5944H104.716L104.757 43.6622Z" fill="white"/>
<g clip-path="url(#clip0_1277_4585)">
<path d="M196.965 14.7773C197.674 15.6905 198.273 16.6825 198.752 17.7336L185.172 27.7174L179.496 24.1692V19.9006L185.172 23.4487L196.965 14.7773Z" fill="white"/>
<path d="M173.704 23.868C173.704 23.6765 173.709 23.4862 173.718 23.297L170.278 23.1289C170.267 23.3741 170.26 23.6216 170.26 23.8715C170.258 25.8235 170.643 27.7565 171.393 29.5596C172.142 31.3629 173.241 33.0008 174.626 34.3795L177.066 31.9475C176 30.8881 175.154 29.6289 174.577 28.2424C174 26.8558 173.703 25.3692 173.704 23.868Z" fill="white"/>
<path d="M185.169 12.4341C185.361 12.4341 185.552 12.4411 185.742 12.4504L185.914 9.01899C185.667 9.00731 185.419 9.00148 185.169 9.00148C183.211 8.99909 181.272 9.38249 179.463 10.1296C177.653 10.8768 176.01 11.973 174.627 13.3553L177.067 15.7885C178.129 14.7245 179.392 13.8803 180.782 13.3047C182.173 12.729 183.664 12.4331 185.169 12.4341Z" fill="white"/>
<path d="M185.168 35.3014C184.976 35.3014 184.785 35.3014 184.594 35.2862L184.422 38.7165C184.669 38.729 184.918 38.7352 185.168 38.7352C187.125 38.7372 189.063 38.3536 190.871 37.6062C192.68 36.8589 194.322 35.7625 195.704 34.3802L193.269 31.9482C192.206 33.0117 190.944 33.8553 189.554 34.4308C188.163 35.0062 186.673 35.3022 185.168 35.3014Z" fill="white"/>
<path d="M191.631 14.4292L194.53 12.2984C191.88 10.1588 188.573 8.99406 185.164 9.00002V12.4338C187.473 12.4309 189.727 13.1267 191.631 14.4292Z" fill="white"/>
<path d="M200.077 23.8675C200.079 22.9742 200.001 22.0825 199.843 21.2031L196.634 23.5616C196.634 23.6632 196.634 23.7648 196.634 23.8675C196.635 25.465 196.299 27.0449 195.649 28.5048C194.998 29.9646 194.047 31.2718 192.857 32.3416L195.172 34.8928C196.718 33.5003 197.954 31.7993 198.799 29.9C199.644 28.0007 200.08 25.9454 200.077 23.8675Z" fill="white"/>
<path d="M185.168 35.3017C183.566 35.3022 181.982 34.9672 180.518 34.3184C179.054 33.6696 177.743 32.7213 176.67 31.5352L174.113 33.8422C175.509 35.3849 177.215 36.6176 179.119 37.4606C181.024 38.3035 183.085 38.7379 185.168 38.7354V35.3017Z" fill="white"/>
<path d="M177.481 15.3934L175.167 12.8423C173.62 14.2344 172.384 15.9354 171.539 17.8347C170.693 19.734 170.257 21.7894 170.26 23.8675H173.704C173.703 22.27 174.039 20.6901 174.69 19.2303C175.34 17.7705 176.291 16.4633 177.481 15.3934Z" fill="white"/>
<path d="M256.294 17.5025L260.56 14.4038H246.283V33.0245H260.56V29.9258H250.357V25.1561H259.06V22.0573H250.357V17.5025H256.294Z" fill="white"/>
<path d="M236.676 21.6577H231.72V17.5012H239.63L243.893 14.3931H227.648V33.0138H236.152C240.919 33.0138 243.655 30.8832 243.655 27.1676C243.655 23.613 241.177 21.6577 236.676 21.6577ZM235.968 29.9141H231.72V24.7545H235.968C238.547 24.7545 239.756 25.6192 239.756 27.3343C239.756 29.0494 238.47 29.9141 235.968 29.9141Z" fill="white"/>
<path d="M271.054 14.4009H263.283V33.0215H267.356V27.7466H271.054C276.012 27.7466 279.079 25.1742 279.079 21.0638C279.079 16.9536 276.012 14.4009 271.054 14.4009ZM270.968 24.6455H267.356V17.502H270.968C273.576 17.502 275.016 18.7713 275.016 21.0752C275.016 23.3791 273.576 24.6455 270.968 24.6455Z" fill="white"/>
<path d="M221.537 28.6274C220.485 29.1892 219.306 29.4801 218.109 29.4732C214.528 29.4732 211.93 26.9524 211.93 23.4812C211.93 20.01 214.528 17.4837 218.109 17.4837C219.401 17.462 220.665 17.8482 221.718 18.5857L224.567 16.5167L224.375 16.3817C222.713 14.9409 220.492 14.1777 217.95 14.1777C215.193 14.1777 212.693 15.0924 210.908 16.7564C210.005 17.6131 209.292 18.6441 208.811 19.785C208.33 20.926 208.093 22.1522 208.115 23.3875C208.095 24.6353 208.332 25.8741 208.809 27.03C209.286 28.186 209.994 29.2351 210.891 30.1151C212.685 31.8452 215.179 32.7984 217.917 32.7984C220.777 32.7984 223.277 31.8149 224.97 30.0242L222.419 28.1509L221.537 28.6274Z" fill="white"/>
<path d="M295.23 21.6577H290.275V17.5012H300.922V14.3931H286.201V33.0138H294.694C299.461 33.0138 302.197 30.8832 302.197 27.1676C302.208 23.613 299.73 21.6577 295.23 21.6577ZM294.522 29.9141H290.275V24.7545H294.522C297.1 24.7545 298.309 25.6192 298.309 27.3343C298.309 29.0494 297.034 29.9141 294.522 29.9141Z" fill="white"/>
<path d="M348.506 32.9874H344.377V14.3667H348.506V22.1875H350.754L356.823 14.3667H361.503L354.304 23.2248L362.664 32.9874H357.185L351.04 25.6641H348.506V32.9874Z" fill="white"/>
<path d="M317.199 29.4486H308.463L306.982 33.0645H302.588L310.781 14.4438H315.175L323.235 33.0645H318.68L317.199 29.4486ZM315.831 26.0747L312.857 18.8428L309.867 26.0747H315.831Z" fill="white"/>
<path d="M328.795 14.4438V22.2195H337.34V14.4438H341.598V33.0645H337.34V25.7273H328.795V33.0645H324.537V14.4438H328.795Z" fill="white"/>
</g>
<g clip-path="url(#clip1_1277_4585)">
<path d="M530.794 3.86963H527.312V27.5295H530.794V3.86963Z" fill="white"/>
<path d="M536.686 23.252C535.383 23.252 534.334 24.3002 534.334 25.6018C534.334 26.9035 535.383 27.9517 536.686 27.9517C537.989 27.9517 539.038 26.9035 539.038 25.6018C539.038 24.3002 537.989 23.252 536.686 23.252Z" fill="white"/>
<path d="M545.84 19.2899C545.84 16.4678 547.535 14.0488 550.821 14.0488H552.896V10.7544H550.821C548.25 10.7544 547.074 11.5722 545.875 12.9315L545.852 12.966V10.7544H542.404V27.5145H545.84C545.84 27.5029 545.84 20.4303 545.84 19.2899Z" fill="white"/>
<path d="M523.531 10.7544H520.049V27.5145H523.531V10.7544Z" fill="white"/>
<path d="M521.79 7.98048C523.092 7.98048 524.142 6.93226 524.142 5.63062C524.142 4.32898 523.081 3.28076 521.79 3.28076C520.487 3.28076 519.438 4.32898 519.438 5.63062C519.438 6.93226 520.498 7.98048 521.79 7.98048Z" fill="white"/>
<path d="M512.854 12.4535C511.517 11.0942 509.464 10.334 507.424 10.334C502.558 10.334 498.604 14.285 498.604 19.146C498.604 24.007 502.558 27.958 507.424 27.958C509.464 27.958 511.62 27.0825 512.854 25.7002V27.5318H516.278V10.7602H512.854V12.4535ZM507.539 24.4562C504.541 24.4562 502.258 22.1524 502.258 19.146C502.258 16.1395 504.541 13.8588 507.539 13.8588C510.537 13.8588 512.9 16.0013 512.9 19.146C512.9 22.2906 510.537 24.4562 507.539 24.4562Z" fill="white"/>
<path d="M562.535 27.9522C564.091 27.9522 566.074 27.1113 567.319 25.6829C567.331 26.3165 567.319 26.8924 567.319 27.5145H570.744V20.1999V10.7544H567.308V19.958C567.308 22.3424 565.486 24.5656 562.754 24.5656C560.367 24.5656 558.672 22.8378 558.672 20.3612V10.7659H555.236V20.6492C555.248 25.0724 557.634 27.9522 562.535 27.9522Z" fill="white"/>
<path d="M488.55 10.334C486.267 10.334 484.031 11.3707 482.67 13.0064C481.425 11.3592 479.615 10.334 477.182 10.334C475.199 10.334 473.781 11.2209 473.02 11.9351V10.7602H469.596V27.5202H473.02V17.7176C473.02 15.529 474.807 13.7551 476.986 13.7551C479.165 13.7551 480.952 15.5405 480.952 17.7176V27.5202H484.377V17.7176C484.377 15.529 486.164 13.7551 488.343 13.7551C490.522 13.7551 492.309 15.5405 492.309 17.7176V27.5202H495.733V17.7176C495.756 13.2252 492.839 10.334 488.55 10.334Z" fill="white"/>
<path d="M533.77 35.2674L533.747 35.2904V33.9888H532.744H531.73H531.557V43.826H531.73H533.747C533.747 43.8144 533.747 39.8865 533.747 39.2184C533.747 37.5596 534.739 36.1428 536.664 36.1428H537.875V33.9888H536.664C535.165 33.9888 534.474 34.4726 533.77 35.2674Z" fill="white"/>
<path d="M557.324 39.3818C557.324 40.9599 556.056 41.9044 554.822 41.9044C553.519 41.9044 552.597 40.9599 552.597 39.6122V34.0024H550.395V39.7734C550.395 42.5034 551.963 44.0815 554.683 44.0815C555.571 44.0815 556.62 43.6323 557.312 42.9526C557.312 43.1254 557.312 43.2982 557.312 43.471V43.8396H559.503V34.0024H557.301L557.324 39.3818Z" fill="white"/>
<path d="M543.581 33.7485C540.733 33.7485 538.416 36.0638 538.416 38.909C538.416 41.7542 540.733 44.0695 543.581 44.0695C546.429 44.0695 548.746 41.7542 548.746 38.909C548.746 36.0638 546.441 33.7485 543.581 33.7485ZM543.581 41.8809C541.944 41.8809 540.607 40.5447 540.607 38.909C540.607 37.2733 541.944 35.9371 543.581 35.9371C545.218 35.9371 546.556 37.2733 546.556 38.909C546.556 40.5447 545.23 41.8809 543.581 41.8809Z" fill="white"/>
<path d="M566.893 33.7485C565.763 33.7485 564.668 34.1402 563.896 34.8083V33.9904H561.705V47.2142H563.896V42.9522C564.634 43.6433 565.775 44.081 566.893 44.081C569.741 44.081 572.059 41.7657 572.059 38.9205C572.059 36.0638 569.741 33.7485 566.893 33.7485ZM566.824 41.8348C565.106 41.8348 563.861 40.6023 563.861 38.909C563.861 37.2157 565.106 35.9947 566.824 35.9947C568.484 35.9947 569.741 37.2503 569.741 38.909C569.741 40.5793 568.484 41.8348 566.824 41.8348Z" fill="white"/>
<path d="M527.184 34.8083C526.412 34.1402 525.317 33.7485 524.187 33.7485C521.339 33.7485 519.021 36.0638 519.021 38.909C519.021 41.7542 521.339 44.0695 524.187 44.0695C525.305 44.0695 526.446 43.6318 527.184 42.9406V43.1365C527.15 45.1523 526.17 46.1775 524.256 46.1775H524.233C523.149 46.1775 522.192 45.7628 521.304 44.8989L521.224 44.8182L519.633 46.3387L519.702 46.4194C520.52 47.3754 522.181 48.4697 524.175 48.4697C524.21 48.4697 524.244 48.4697 524.279 48.4697C526.147 48.4352 529.283 47.7095 529.375 43.2171V33.9789H527.184V34.8083ZM524.256 41.8348C522.596 41.8348 521.339 40.5793 521.339 38.909C521.339 37.2503 522.596 35.9947 524.256 35.9947C525.974 35.9947 527.219 37.2157 527.219 38.909C527.207 40.6023 525.974 41.8348 524.256 41.8348Z" fill="white"/>
<path d="M446.537 18.8434C446.537 21.8959 444.058 24.3725 441.003 24.3725C437.947 24.3725 435.469 21.8959 435.469 18.8434C435.469 15.7909 437.947 13.3143 441.003 13.3143C444.058 13.3143 446.537 15.8024 446.537 18.8434ZM441.003 0.470703C430.857 0.470703 422.602 8.71826 422.602 18.8549C422.602 28.9916 430.857 37.2276 441.003 37.2276C444.715 37.2276 448.301 36.1218 451.368 34.0254L451.425 33.9908L448.947 31.1111L448.9 31.1341C446.537 32.6431 443.816 33.4494 441.003 33.4494C432.944 33.4494 426.383 26.8951 426.383 18.8434C426.383 10.7917 432.944 4.2374 441.003 4.2374C449.062 4.2374 455.622 10.7917 455.622 18.8434C455.622 19.8916 455.507 20.9399 455.276 21.9881C454.815 23.8887 453.489 24.4646 452.486 24.384C451.483 24.3034 450.307 23.5892 450.295 21.8383V18.8434C450.295 13.7175 446.122 9.54763 440.991 9.54763C435.861 9.54763 431.687 13.7175 431.687 18.8434C431.687 23.9693 435.861 28.1392 440.991 28.1392C443.482 28.1392 445.822 27.1601 447.586 25.3977C448.612 26.9873 450.284 27.9894 452.186 28.1392C452.348 28.1507 452.521 28.1622 452.682 28.1622C454.019 28.1622 455.345 27.713 456.418 26.9067C457.524 26.0658 458.343 24.8563 458.793 23.4049C458.862 23.1745 459 22.6331 459 22.6331V22.6101C459.265 21.4467 459.392 20.2833 459.392 18.8434C459.404 8.71826 451.149 0.470703 441.003 0.470703Z" fill="white"/>
</g>
<path fill-rule="evenodd" clip-rule="evenodd" d="M822.894 9.93278V15.5285C819.995 14.4341 817.414 13.8808 815.155 13.8808C813.817 13.8808 812.752 14.1286 811.951 14.6076C811.149 15.0908 810.74 15.6855 810.74 16.3875C810.74 17.3208 811.645 18.1509 813.466 18.8943L818.727 21.4547C822.981 23.4824 825.091 26.1749 825.091 29.5572C825.091 32.3695 823.972 34.612 821.713 36.2721C819.471 37.9488 816.452 38.7789 812.694 38.7789C810.959 38.7789 809.403 38.7046 808.019 38.5476C806.636 38.399 805.046 38.0933 803.282 37.6556V31.7997C806.516 32.8941 809.46 33.4474 812.112 33.4474C815.275 33.4474 816.848 32.5306 816.848 30.6805C816.848 29.7596 816.204 29.0162 814.895 28.4339L809.051 25.9437C806.896 24.9691 805.293 23.788 804.244 22.388C803.212 20.9757 802.688 19.3568 802.688 17.5067C802.688 14.9173 803.778 12.8318 805.933 11.246C808.106 9.67253 810.988 8.88379 814.573 8.88379C815.737 8.88379 817.08 8.98699 818.566 9.17697C820.065 9.37934 821.507 9.62712 822.894 9.93278Z" fill="white"/>
<path fill-rule="evenodd" clip-rule="evenodd" d="M657.392 9.93278V15.5285C654.493 14.4341 651.916 13.8808 649.657 13.8808C648.314 13.8808 647.253 14.1286 646.452 14.6076C645.651 15.0908 645.242 15.6855 645.242 16.3875C645.242 17.3208 646.159 18.1509 647.98 18.8943L653.241 21.4547C657.478 23.4824 659.593 26.1749 659.593 29.5572C659.593 32.3695 658.47 34.612 656.227 36.2721C653.968 37.9488 650.966 38.7789 647.195 38.7789C645.461 38.7789 643.9 38.7046 642.516 38.5476C641.133 38.399 639.559 38.0933 637.784 37.6556V31.7997C641.03 32.8941 643.974 33.4474 646.609 33.4474C649.772 33.4474 651.346 32.5306 651.346 30.6805C651.346 29.7596 650.706 29.0162 649.409 28.4339L643.565 25.9437C641.393 24.9691 639.791 23.788 638.758 22.388C637.709 20.9757 637.197 19.3568 637.197 17.5067C637.197 14.9173 638.279 12.8318 640.447 11.246C642.603 9.67253 645.49 8.88379 649.074 8.88379C650.251 8.88379 651.577 8.98699 653.08 9.17697C654.567 9.37934 656.008 9.62712 657.392 9.93278Z" fill="white"/>
<path fill-rule="evenodd" clip-rule="evenodd" d="M663.422 9.4082H671.991V38.2544H663.422V9.4082Z" fill="white"/>
<path fill-rule="evenodd" clip-rule="evenodd" d="M699.598 9.4082V14.7398H686.866V21.1366H697.909V25.9436H686.866V32.6586H699.858V38.2544H678.619V9.4082H699.598Z" fill="white"/>
<path fill-rule="evenodd" clip-rule="evenodd" d="M739.601 9.4082V38.2544H731.602V19.2287L723.301 38.5187H718.362L710.379 19.2287V38.2544H704.594V9.4082H715.054L722.195 27.0669L729.665 9.4082H739.601Z" fill="white"/>
<path fill-rule="evenodd" clip-rule="evenodd" d="M767.198 9.4082V14.7398H754.535V21.1366H765.578V25.9436H754.535V32.6586H767.458V38.2544H746.219V9.4082H767.198Z" fill="white"/>
<path fill-rule="evenodd" clip-rule="evenodd" d="M797.265 9.4082V38.2544H788.175L777.975 19.7532V38.2544H772.193V9.4082H781.548L791.484 27.5915V9.4082H797.265Z" fill="white"/>
<g clip-path="url(#clip2_1277_4585)">
<path d="M1033.57 30.056L1030.08 21.953L1026.61 30.056L1026.37 30.607H1033.79L1033.57 30.056ZM1032.42 15.9757L1042.97 39.9999H1037.82L1035.65 34.9734H1024.54L1024.39 35.3186L1022.35 39.9999H1017.34L1028 15.8364H1032.28L1032.42 15.9757ZM1066.66 32.4784L1061.17 15.8425H1057.16L1051.67 32.4784L1046.35 15.8425H1041.13L1049.56 40.006H1053.61L1059.11 24.1332L1064.6 40.006H1068.69L1077.1 15.8425H1072.01L1066.66 32.4784ZM1085.9 29.626H1094.84V25.2111H1085.9V20.2452H1098.86V15.8606H1081.07V40.006H1099.33V35.6033H1085.9V29.6078V29.626ZM1105.16 15.8606V39.9878H1110.01V15.8425L1105.16 15.8606ZM982.321 25.5805H971.251V15.8425H966.346V40.0241H971.251V30.1952H982.321V40.0241H987.227V15.8425H982.321V25.5866V25.5805ZM1009.96 15.8364H1014.85V29.4806C1014.85 36.4087 1011.04 40.3815 1004.39 40.3815C997.74 40.3815 994.028 36.4753 994.028 29.6744V15.8546H998.933V29.517C998.933 33.5563 1000.92 35.7183 1004.46 35.7183C1008.01 35.7183 1009.96 33.6108 1009.96 29.6623V15.8425V15.8364Z" fill="white"/>
<path d="M926.915 37.4503C926.953 37.4758 926.999 37.4895 927.045 37.4895C927.091 37.4895 927.136 37.4758 927.175 37.4503C929.973 36.0514 941.631 30.1286 946.451 25.4109C948.325 23.7829 949.479 21.4795 949.661 19.0037C950.006 13.5533 944.495 8.44805 944.495 8.44805C937.516 17.2888 931.586 26.9095 926.824 37.1172C926.81 37.1717 926.811 37.2287 926.826 37.2828C926.841 37.3368 926.869 37.3862 926.909 37.4261L926.915 37.4503ZM953.7 24.7085C953.7 24.7085 937.083 33.6411 928.483 39.4427C928.439 39.4725 928.405 39.5155 928.387 39.5654C928.368 39.6154 928.366 39.67 928.38 39.7213C928.38 39.7213 928.465 39.8788 928.586 39.8788C931.663 39.8788 943.302 39.8788 943.611 39.8424C944.767 39.759 945.903 39.4975 946.978 39.0673C949.794 37.9616 952.055 35.7833 953.264 33.0113C954.415 30.3801 954.568 27.4199 953.694 24.6842L953.7 24.7085ZM928.919 41.3322C928.873 41.3411 928.829 41.3597 928.79 41.3869C928.752 41.414 928.719 41.4491 928.695 41.4897C928.683 41.5352 928.683 41.5829 928.695 41.6284C928.707 41.674 928.73 41.7158 928.762 41.7501C930.627 43.0945 936.308 47.0673 939.057 47.8061C939.057 47.8061 944.12 49.5321 948.504 41.9863L928.937 41.3141L928.919 41.3322ZM924.292 35.8818C924.343 35.9016 924.4 35.9021 924.451 35.8831C924.503 35.8642 924.545 35.8271 924.571 35.7789C926.436 33.0839 934.915 20.5056 936.622 12.8689C936.622 12.8689 937.555 9.17477 936.659 6.64941C936.188 5.17251 935.347 3.84066 934.216 2.78063C933.085 1.72059 931.701 0.967628 930.197 0.593395C930.197 0.593395 928.713 0.211866 927.121 -0.012207C927.121 -0.012207 921.319 7.44881 924.147 35.6396C924.142 35.6872 924.152 35.7352 924.178 35.7759C924.203 35.8166 924.241 35.8475 924.286 35.8636L924.292 35.8818ZM917.806 0.00596029C916.959 0.0725765 914.663 0.611562 914.663 0.611562C913.169 0.993999 911.797 1.75064 910.676 2.81016C909.555 3.86968 908.722 5.1972 908.256 6.66758C907.305 9.62292 908.256 12.8871 908.256 12.8871C909.982 20.554 918.479 33.1808 920.314 35.8273C920.435 35.9666 920.538 35.9121 920.538 35.9121C920.591 35.8968 920.637 35.865 920.671 35.8215C920.705 35.778 920.724 35.7249 920.725 35.6698C923.56 7.47908 917.788 0.0180657 917.788 0.0180657L917.806 0.00596029ZM916.517 39.7456C916.619 39.5881 916.45 39.4549 916.45 39.4549C907.869 33.6532 891.214 24.7387 891.214 24.7387C890.664 26.43 890.511 28.2254 890.767 29.9854C891.023 31.7455 891.681 33.4228 892.69 34.8873C893.7 36.3517 895.033 37.5638 896.587 38.4295C898.14 39.2952 899.873 39.7911 901.649 39.8788C901.94 39.9333 913.27 39.8788 916.311 39.8788C916.392 39.8664 916.466 39.823 916.517 39.7577V39.7456ZM916.226 41.5018C916.207 41.4487 916.171 41.4031 916.124 41.3715C916.077 41.34 916.022 41.3241 915.965 41.3262L896.411 41.9984C898.536 45.7834 902.109 48.7145 905.822 47.8182C908.395 47.1763 914.197 43.1187 916.117 41.7622C916.274 41.6411 916.22 41.5381 916.22 41.52L916.226 41.5018ZM918.037 37.4806C918.071 37.4517 918.095 37.4123 918.104 37.3686C918.114 37.3249 918.11 37.2792 918.091 37.2383C913.337 26.9891 907.398 17.3325 900.395 8.46622C900.395 8.46622 894.836 13.7531 895.23 19.0521C895.323 20.2741 895.656 21.4657 896.21 22.5588C896.763 23.652 897.527 24.6253 898.457 25.4231C903.302 30.1528 915.057 36.1301 917.782 37.4988C917.826 37.5161 917.874 37.5202 917.921 37.5105C917.967 37.5008 918.009 37.4778 918.043 37.4443" fill="white"/>
</g>
<path d="M26.7056 112.777C27.4138 113.69 28.0133 114.683 28.492 115.734L14.9119 125.717L9.23633 122.169V117.901L14.9119 121.449L26.7056 112.777Z" fill="white"/>
<path d="M3.44421 121.868C3.44421 121.676 3.4489 121.486 3.45826 121.297L0.0187323 121.129C0.00702524 121.374 4.15651e-06 121.622 4.15651e-06 121.871C-0.00145927 123.823 0.383523 125.756 1.13288 127.56C1.88222 129.363 2.98119 131.001 4.36673 132.379L6.80647 129.947C5.73993 128.888 4.89384 127.629 4.31683 126.242C3.73982 124.856 3.44327 123.369 3.44421 121.868Z" fill="white"/>
<path d="M14.9094 110.434C15.1014 110.434 15.2921 110.441 15.4818 110.45L15.6539 107.019C15.4073 107.007 15.1591 107.001 14.9094 107.001C12.9512 106.999 11.012 107.382 9.20282 108.13C7.39368 108.877 5.75035 109.973 4.36719 111.355L6.80693 113.788C7.86921 112.724 9.13191 111.88 10.5224 111.305C11.9129 110.729 13.4038 110.433 14.9094 110.434Z" fill="white"/>
<path d="M14.9098 133.301C14.7178 133.301 14.5269 133.301 14.3362 133.286L14.1641 136.717C14.4115 136.729 14.6601 136.735 14.9098 136.735C16.8671 136.737 18.8055 136.354 20.6136 135.606C22.4218 134.859 24.0641 133.763 25.4462 132.38L23.0111 129.948C21.9486 131.012 20.6861 131.855 19.2958 132.431C17.9056 133.006 16.415 133.302 14.9098 133.301Z" fill="white"/>
<path d="M21.3713 112.429L24.27 110.298C21.6206 108.159 18.3134 106.994 14.9043 107V110.434C17.2128 110.431 19.4677 111.127 21.3713 112.429Z" fill="white"/>
<path d="M29.8174 121.867C29.8193 120.974 29.7409 120.082 29.5832 119.203L26.3744 121.562C26.3744 121.663 26.3744 121.765 26.3744 121.867C26.3752 123.465 26.0394 125.045 25.3889 126.505C24.7382 127.965 23.7872 129.272 22.5977 130.342L24.9122 132.893C26.4587 131.5 27.6946 129.799 28.5396 127.9C29.3847 126.001 29.82 123.945 29.8174 121.867Z" fill="white"/>
<path d="M14.9085 133.302C13.3065 133.302 11.7223 132.967 10.2583 132.318C8.79442 131.67 7.48345 130.721 6.41032 129.535L3.85352 131.842C5.24953 133.385 6.95507 134.618 8.85954 135.461C10.764 136.304 12.8248 136.738 14.9085 136.735V133.302Z" fill="white"/>
<path d="M7.22091 113.393L4.9076 110.842C3.3606 112.234 2.12428 113.935 1.27883 115.835C0.433389 117.734 -0.00230497 119.789 9.1703e-06 121.867H3.44422C3.44351 120.27 3.77934 118.69 4.42993 117.23C5.08054 115.771 6.0314 114.463 7.22091 113.393Z" fill="white"/>
<path d="M86.0341 115.503L90.2998 112.404H76.0234V131.025H90.2998V127.926H80.0971V123.156H88.8005V120.057H80.0971V115.503H86.0341Z" fill="white"/>
<path d="M66.4163 119.658H61.4599V115.501H69.3702L73.6333 112.393H57.3887V131.014H65.8921C70.6595 131.014 73.3955 128.883 73.3955 125.168C73.3955 121.613 70.9173 119.658 66.4163 119.658ZM65.7087 127.914H61.4599V122.755H65.7087C68.2872 122.755 69.4962 123.619 69.4962 125.334C69.4962 127.049 68.2098 127.914 65.7087 127.914Z" fill="white"/>
<path d="M100.795 112.401H93.0234V131.022H97.0965V125.747H100.795C105.753 125.747 108.82 123.174 108.82 119.064C108.82 114.954 105.753 112.401 100.795 112.401ZM100.709 122.646H97.0965V115.502H100.709C103.317 115.502 104.756 116.771 104.756 119.075C104.756 121.379 103.317 122.646 100.709 122.646Z" fill="white"/>
<path d="M51.277 126.627C50.2247 127.189 49.0459 127.48 47.8494 127.473C44.2684 127.473 41.6705 124.952 41.6705 121.481C41.6705 118.01 44.2684 115.484 47.8494 115.484C49.1408 115.462 50.4054 115.848 51.4585 116.586L54.3077 114.517L54.115 114.382C52.453 112.941 50.2322 112.178 47.6903 112.178C44.9332 112.178 42.4331 113.092 40.6482 114.756C39.7456 115.613 39.0319 116.644 38.5512 117.785C38.0706 118.926 37.8335 120.152 37.8548 121.387C37.8357 122.635 38.0718 123.874 38.5488 125.03C39.0259 126.186 39.7341 127.235 40.6314 128.115C42.4247 129.845 44.9192 130.798 47.6567 130.798C50.5171 130.798 53.0172 129.815 54.71 128.024L52.1597 126.151L51.277 126.627Z" fill="white"/>
<path d="M124.97 119.658H120.015V115.501H130.662V112.393H115.941V131.014H124.434C129.201 131.014 131.937 128.883 131.937 125.168C131.948 121.613 129.471 119.658 124.97 119.658ZM124.262 127.914H120.015V122.755H124.262C126.841 122.755 128.049 123.619 128.049 125.334C128.049 127.049 126.774 127.914 124.262 127.914Z" fill="white"/>
<path d="M178.247 130.987H174.117V112.367H178.247V120.188H180.494L186.564 112.367H191.244L184.044 121.225L192.404 130.987H186.925L180.781 123.664H178.247V130.987Z" fill="white"/>
<path d="M146.939 127.449H138.204L136.723 131.065H132.328L140.521 112.444H144.915L152.975 131.065H148.42L146.939 127.449ZM145.571 124.075L142.597 116.843L139.607 124.075H145.571Z" fill="white"/>
<path d="M158.535 112.444V120.22H167.08V112.444H171.338V131.065H167.08V123.727H158.535V131.065H154.277V112.444H158.535Z" fill="white"/>
<path fill-rule="evenodd" clip-rule="evenodd" d="M281.726 109.043V119.916H283.835H285.943V109.043V98H283.835H281.726V109.043ZM276.906 113.561V124.389H279.014H281.123V113.561V102.618H279.014H276.906V113.561ZM286.747 113.568V124.403H288.797H290.864L290.92 113.51L290.977 102.618H288.862H286.747V113.568ZM272.085 116.82V126.619L274.047 128.573C275.126 129.647 276.071 130.527 276.146 130.527C276.222 130.527 276.266 125.264 276.243 118.831L276.203 107.136L274.144 107.078L272.085 107.021V116.82ZM291.567 118.846V130.62L293.677 128.517L295.788 126.414L295.736 116.775L295.684 107.136L293.625 107.104L291.567 107.072V118.846ZM267.064 111.5C267.064 111.5 267.064 114.244 267.064 117.083V122.245L268.723 123.725C269.635 124.54 270.584 125.378 270.832 125.588L271.282 125.971V118.832V111.522L269.064 111.5C267.98 111.487 267.064 111.5 267.064 111.5ZM296.501 111.5V125.909C296.501 125.909 297.511 125.118 298.606 124.152L300.597 122.395L300.601 117.016V111.5H298.564H296.501ZM296.387 140.448V145.786H297.994H299.6V143.979V142.172L302.864 142.157C306.564 142.139 307.31 141.966 307.985 140.971C308.36 140.42 308.437 140.033 308.437 138.719C308.437 136.873 308.133 136.12 307.179 135.602C306.619 135.298 305.827 135.239 301.458 135.179L296.387 135.109V140.448ZM312.253 135.37C311.318 135.648 310.69 136.262 310.447 137.137C310.337 137.532 310.247 139.12 310.246 140.666C310.246 143.771 310.441 144.482 311.515 145.27C312.046 145.66 312.349 145.685 316.37 145.685C320.405 145.685 320.692 145.661 321.226 145.266C322.272 144.492 322.396 143.98 322.39 140.465C322.381 135.396 322.25 135.275 316.672 135.207C314.546 135.181 312.656 135.251 312.253 135.37ZM326.011 135.438C324.294 136.062 324.001 136.981 324.144 141.285C324.244 144.305 324.421 144.77 325.724 145.434C326.745 145.955 333.711 145.955 334.733 145.434C335.784 144.898 336.162 144.242 336.211 142.867L336.254 141.67H334.649H333.044L332.941 142.267C332.798 143.092 332.131 143.37 330.292 143.373C328.56 143.377 327.84 143.178 327.629 142.639C327.55 142.437 327.493 141.42 327.503 140.379C327.527 137.816 327.588 137.755 330.143 137.755C331.221 137.755 332.242 137.808 332.412 137.873C332.581 137.938 332.822 138.303 332.948 138.684L333.177 139.377L334.715 139.319L336.254 139.26L336.229 138.246C336.198 136.977 335.735 136.059 334.895 135.6C333.998 135.11 327.251 134.987 326.011 135.438ZM338.099 135.42C338.037 135.58 337.978 137.978 337.968 140.748L337.948 145.786H339.662H341.375V143.795C341.375 142.671 341.461 141.774 341.572 141.737C341.681 141.7 342.901 141.698 344.284 141.731L346.798 141.793V143.79V145.786H348.508H350.219L350.165 140.515L350.112 135.245H348.505H346.898L346.883 137.219L346.868 139.192L344.198 139.186C342.73 139.182 341.502 139.152 341.47 139.12C341.438 139.087 341.381 138.201 341.343 137.152L341.275 135.245L339.743 135.187C338.55 135.141 338.186 135.193 338.099 135.42ZM354.128 135.331C352.176 135.802 351.919 136.399 351.919 140.465C351.919 143.978 352.044 144.493 353.088 145.266C353.623 145.662 353.947 145.689 358.862 145.748L364.07 145.811V144.593V143.376H360.263C357.782 143.376 356.277 143.295 355.94 143.141C355.469 142.927 355.045 142.093 355.284 141.853C355.339 141.798 357.316 141.734 359.677 141.711L363.969 141.67V140.465V139.26L360.154 139.22C358.055 139.198 356.089 139.175 355.785 139.17C355.131 139.158 355.029 138.604 355.589 138.097C355.885 137.83 356.617 137.765 359.957 137.715L363.969 137.654L364.029 136.399L364.089 135.144L359.41 135.165C356.836 135.176 354.46 135.251 354.128 135.331ZM373.108 136.148V137.152L370.246 137.153C367.101 137.154 366.495 137.333 365.738 138.488C365.203 139.306 365.233 141.548 365.789 142.294C366.738 143.566 367.059 143.672 370.21 143.747L373.108 143.816V144.801V145.786H374.704H376.3L376.361 144.752L376.421 143.718L378.955 143.74C381.199 143.76 381.59 143.712 382.365 143.318C383.552 142.717 384.053 141.81 384.018 140.323C383.986 138.93 383.447 137.941 382.463 137.475C381.943 137.228 381.144 137.152 379.052 137.152H376.321V136.148V135.144H374.714H373.108V136.148ZM383.953 136.461V137.778L386.012 137.739L388.07 137.701L388.125 141.743L388.179 145.786H389.882H391.585V141.77V137.755L393.643 137.731C394.776 137.718 395.77 137.718 395.853 137.731C395.936 137.744 396.003 137.167 396.003 136.45V135.144H389.978H383.953V136.461ZM397.409 140.465V145.786L402.28 145.781C406.606 145.778 407.243 145.735 407.979 145.401C409.08 144.901 409.544 143.77 409.424 141.881C409.331 140.424 408.915 139.663 407.935 139.162C407.418 138.898 405.136 138.764 401.075 138.759C400.64 138.759 400.623 138.691 400.623 136.952V135.144H399.016H397.409V140.465ZM304.983 137.996C305.321 138.333 305.283 139.073 304.908 139.447C304.655 139.7 304.098 139.762 302.097 139.762H299.6V138.759V137.755H302.171C303.903 137.755 304.821 137.833 304.983 137.996ZM318.68 137.951C318.898 138.088 319.009 138.644 319.082 139.959C319.205 142.181 319.037 142.925 318.358 143.184C317.711 143.43 315.043 143.435 314.403 143.191C313.724 142.933 313.62 142.546 313.648 140.373C313.681 137.799 313.728 137.754 316.351 137.758C317.467 137.759 318.514 137.846 318.68 137.951ZM373.108 140.465V141.569H371.314C369.362 141.569 368.89 141.355 368.89 140.465C368.89 139.576 369.362 139.361 371.314 139.361H373.108V140.465ZM380.223 139.676C380.397 139.85 380.539 140.205 380.539 140.465C380.539 141.355 380.067 141.569 378.114 141.569H376.321V140.465V139.361H378.114C379.477 139.361 379.983 139.437 380.223 139.676ZM406.128 142.015C406.279 142.447 406.243 142.646 405.95 142.969C405.618 143.337 405.339 143.376 403.102 143.376H400.623V142.386C400.623 141.205 400.593 141.214 403.832 141.369C405.905 141.467 405.94 141.477 406.128 142.015Z" fill="white"/>
<path d="M276.906 146V136.673V125.731H279.014H281.123V136.673V146H279.014H276.906Z" fill="white"/>
<path d="M286.646 146V136.673V125.731H288.755H290.864V136.673V146H288.755H286.646Z" fill="white"/>
<path d="M281.726 146V136.673V121.258H283.835H285.943V136.673V146H283.835H281.726Z" fill="white"/>
<path fill-rule="evenodd" clip-rule="evenodd" d="M507.967 98.5815C505.222 102.381 503.679 106.236 503.166 110.569C502.967 112.25 503.075 115.909 503.368 117.408C504.03 120.789 505.47 124.235 507.37 126.979C508.363 128.413 508.359 128.411 508.999 127.57C512.118 123.47 514.009 117.427 513.763 112.343C513.521 107.347 511.891 102.821 508.803 98.5722L508.387 98L507.967 98.5815ZM509.851 102.824C511.706 106.397 512.551 109.815 512.551 113.746C512.551 115.162 512.229 118.461 512.078 118.593C512.05 118.617 511.984 117.907 511.931 117.015C511.75 113.989 511.209 111.511 510.177 108.983C509.592 107.552 508.508 105.448 508.355 105.448C508.2 105.448 507.174 107.452 506.636 108.804C505.517 111.619 505.03 113.759 504.916 116.37C504.826 118.422 504.721 118.957 504.569 118.14C504.513 117.838 504.39 116.651 504.297 115.502C504.003 111.912 504.495 108.679 505.86 105.231C506.518 103.569 507.675 101.237 508.167 100.581L508.385 100.291L508.801 100.947C509.03 101.308 509.503 102.153 509.851 102.824ZM517.865 120.947V129.245H519.613H521.362V121.984V114.723H523.04H524.718V113.685V112.648H521.292H517.865V120.947ZM526.816 112.82C526.816 112.915 526.5 115.729 526.113 119.075C525.216 126.825 524.999 128.767 524.998 129.031C524.998 129.223 525.173 129.245 526.727 129.245H528.456L528.55 127.933C528.601 127.212 528.682 126.223 528.728 125.736L528.813 124.852H529.687H530.561L530.641 125.37C530.686 125.656 530.765 126.644 530.816 127.567L530.91 129.245H532.7H534.491L534.425 128.848C534.389 128.63 533.985 125.157 533.527 121.13C533.069 117.102 532.656 113.547 532.609 113.228L532.524 112.648H529.67C527.307 112.648 526.816 112.678 526.816 112.82ZM538.145 112.775C537.387 112.913 536.911 113.205 536.536 113.759C536.295 114.116 536.25 114.44 536.209 116.096L536.162 118.018H537.923H539.683L539.685 116.706C539.687 115.329 539.844 114.819 540.288 114.744C540.879 114.645 540.942 114.88 540.942 117.178C540.942 119.892 540.971 119.848 539.194 119.848H538.005V120.764V121.679H539.063C540.077 121.679 540.614 121.804 540.835 122.094C540.891 122.168 540.939 123.274 540.94 124.553C540.942 127.016 540.903 127.17 540.281 127.17C539.8 127.17 539.683 126.752 539.683 125.027V123.509H537.924H536.164L536.211 125.675C536.262 128.079 536.352 128.373 537.199 128.9C537.63 129.168 537.796 129.186 540.196 129.222C542.541 129.257 542.782 129.24 543.307 129.007C543.682 128.839 543.983 128.578 544.192 128.237C544.49 127.75 544.511 127.557 544.548 124.974C544.583 122.535 544.56 122.18 544.338 121.803C544.022 121.266 543.274 120.825 542.678 120.825C542.018 120.825 541.962 120.617 542.596 120.523C543.405 120.404 544.002 120.028 544.304 119.449C544.534 119.006 544.572 118.641 544.574 116.858C544.579 113.138 544.222 112.751 540.732 112.693C539.655 112.675 538.491 112.712 538.145 112.775ZM547.096 120.947V129.245H548.914H550.732V121.984V114.723H551.361H551.991V121.984V129.245H553.739H555.487V120.947V112.648H551.291H547.096V120.947ZM558.11 112.718C558.052 112.769 558.005 116.508 558.005 121.028V129.245H559.823H561.641V126.438V123.631H563.08C564.945 123.631 565.594 123.384 566.116 122.472C566.465 121.863 566.466 121.854 566.466 118.323C566.466 116.376 566.416 114.579 566.356 114.33C566.225 113.794 565.697 113.209 565.086 112.923C564.722 112.753 564.104 112.71 561.431 112.671C559.662 112.646 558.167 112.667 558.11 112.718ZM571.012 112.774C570.186 112.926 569.752 113.215 569.368 113.871L569.054 114.408V121.008V127.607L569.368 128.144C569.943 129.126 570.12 129.179 572.974 129.222C575.206 129.256 575.543 129.235 576.091 129.023C576.576 128.836 576.774 128.662 577.04 128.192L577.375 127.598V120.947V114.296L577.059 113.779C576.537 112.926 575.944 112.741 573.599 112.696C572.522 112.676 571.358 112.711 571.012 112.774ZM579.963 120.944V129.245H581.781H583.599L583.603 124.028C583.607 119.212 583.689 118.18 583.939 119.787C583.991 120.123 584.376 122.27 584.795 124.559C585.214 126.847 585.557 128.838 585.557 128.983C585.557 129.235 585.616 129.245 587.023 129.245C588.429 129.245 588.492 129.234 588.56 128.97C588.657 128.595 589.059 126.407 589.767 122.411C590.093 120.565 590.413 119.003 590.476 118.939C590.54 118.875 590.592 121.168 590.592 124.034V129.245H592.41H594.228V120.947V112.648H591.929C590.664 112.648 589.6 112.689 589.565 112.74C589.529 112.79 589.207 114.259 588.85 116.004C588.492 117.749 588.049 119.891 587.866 120.764C587.682 121.636 587.453 122.776 587.357 123.296C587.26 123.816 587.14 124.242 587.09 124.242C587.041 124.242 586.921 123.843 586.824 123.357C586.728 122.87 586.502 121.758 586.322 120.886C586.143 120.013 585.768 118.173 585.49 116.797C585.212 115.421 584.906 113.939 584.811 113.502L584.637 112.709L582.3 112.676L579.963 112.642V120.944ZM499.614 112.899C490.971 113.673 484.113 119.301 482.685 126.792C482.397 128.303 482.471 131.45 482.828 132.845C484.556 139.611 490.485 144.579 498.285 145.798C500.023 146.07 502.951 146.067 504.719 145.791C508.294 145.233 511.744 143.751 514.283 141.682L515.348 140.814V135.152V129.489H508.425H501.502V132.005V134.521L501.994 134.194C504.615 132.45 508.466 133.166 510.004 135.684C511.269 137.755 510.792 139.846 508.659 141.584C506.784 143.112 504.134 144.012 501.514 144.011C493.105 144.005 487.985 136.099 492.291 129.769C492.969 128.773 494.398 127.492 495.601 126.803C496.774 126.131 498.532 125.531 499.684 125.41C500.107 125.366 500.69 125.299 500.981 125.262L501.509 125.195L501.47 119.013L501.432 112.831L501.082 112.815C500.89 112.806 500.229 112.843 499.614 112.899ZM529.96 116.157C530.012 116.945 530.143 118.661 530.252 119.97C530.361 121.279 530.451 122.528 530.452 122.747L530.453 123.143H529.672H528.892L528.971 122.38C529.015 121.961 529.149 120.19 529.269 118.445C529.389 116.7 529.517 115.148 529.553 114.997C529.707 114.352 529.872 114.821 529.96 116.157ZM562.682 114.994C562.865 115.222 562.9 115.756 562.9 118.35C562.9 121.303 562.887 121.445 562.612 121.686C562.451 121.826 562.188 121.921 562.017 121.9C561.711 121.862 561.711 121.86 561.674 118.292L561.637 114.723H562.051C562.32 114.723 562.54 114.818 562.682 114.994ZM573.641 114.869C573.883 115.08 573.883 126.813 573.641 127.024C573.384 127.248 572.857 127.198 572.695 126.934C572.601 126.781 572.55 124.664 572.55 120.902C572.55 115.796 572.576 115.083 572.77 114.914C573.032 114.686 573.409 114.666 573.641 114.869ZM508.989 117.347C510.336 120.469 510.169 124.374 508.575 127.03L508.389 127.338L508.145 126.926C506.964 124.934 506.519 121.793 507.08 119.42C507.33 118.365 507.955 116.788 508.256 116.457C508.456 116.235 508.569 116.372 508.989 117.347ZM517.725 140.289V145.964H556.117H594.508V140.289V134.615H556.117H517.725V140.289ZM522.73 138.062L522.77 139.374H523.744H524.718V138.032V136.689H525.488H526.257V140.228V143.767H525.488H524.718V142.181V140.594H523.739H522.76V142.181V143.767H521.921H521.082V140.222V136.677L521.886 136.714L522.69 136.75L522.73 138.062ZM541.501 137.299V137.91H540.103H538.704V138.642V139.374H539.963H541.222V139.984V140.594H539.963H538.704V141.632V142.669H540.103H541.501V143.218V143.767H539.334H537.166V140.228V136.689H539.334H541.501V137.299ZM556.72 137.147C556.761 137.517 556.799 137.543 557.287 137.543C557.623 137.543 558.037 137.669 558.447 137.896C559.311 138.374 559.708 139.096 559.714 140.199C559.724 141.843 558.748 142.913 557.24 142.913C556.769 142.913 556.746 142.933 556.746 143.34V143.767H555.907H555.068V143.34C555.068 142.921 555.058 142.913 554.486 142.913C553.688 142.913 552.843 142.459 552.409 141.796C551.944 141.088 551.91 139.573 552.34 138.833C552.758 138.115 553.516 137.642 554.363 137.572C555.059 137.513 555.068 137.507 555.068 137.095V136.677L555.872 136.714C556.667 136.75 556.677 136.755 556.72 137.147ZM575.137 137.299V137.849L574.193 137.885L573.249 137.921V140.844V143.767H572.48H571.711V140.838V137.91H570.732H569.753V137.297V136.684L572.445 136.717L575.137 136.75V137.299ZM587.235 138.015V139.341L588.138 139.404C589.267 139.483 589.848 139.772 590.267 140.463C590.86 141.441 590.582 142.884 589.681 143.502C589.331 143.743 589.131 143.767 587.496 143.767H585.697V140.228V136.689H586.466H587.235V138.015ZM554.093 138.943C553.874 139.146 553.747 139.442 553.702 139.851C553.57 141.045 553.969 141.815 554.718 141.815H555.068V140.228C555.068 138.649 555.066 138.642 554.742 138.642C554.563 138.642 554.271 138.777 554.093 138.943ZM556.746 140.228V141.815H557.085C557.84 141.815 558.303 140.703 558.003 139.613C557.833 138.994 557.467 138.642 556.994 138.642C556.769 138.642 556.746 138.789 556.746 140.228ZM587.265 141.662L587.305 142.73L587.921 142.718C588.682 142.703 588.913 142.465 588.913 141.696C588.913 140.889 588.629 140.594 587.851 140.594H587.224L587.265 141.662Z" fill="white"/>
<g clip-path="url(#clip3_1277_4585)">
<path d="M810.503 128.056L807.015 119.953L803.545 128.056L803.302 128.607H810.727L810.503 128.056ZM809.352 113.976L819.908 138H814.76L812.586 132.973H801.48L801.322 133.319L799.281 138H794.273L804.932 113.836H809.213L809.352 113.976ZM843.599 130.478L838.106 113.842H834.097L828.604 130.478L823.281 113.842H818.067L826.497 138.006H830.548L836.041 122.133L841.534 138.006H845.628L854.04 113.842H848.947L843.599 130.478ZM862.839 127.626H871.772V123.211H862.839V118.245H875.793V113.861H858.006V138.006H876.265V133.603H862.839V127.608V127.626ZM882.097 113.861V137.988H886.942V113.842L882.097 113.861ZM759.257 123.581H748.187V113.842H743.281V138.024H748.187V128.195H759.257V138.024H764.162V113.842H759.257V123.587V123.581ZM786.891 113.836H791.79V127.481C791.79 134.409 787.975 138.381 781.325 138.381C774.676 138.381 770.963 134.475 770.963 127.674V113.855H775.869V127.517C775.869 131.556 777.855 133.718 781.398 133.718C784.941 133.718 786.891 131.611 786.891 127.662V113.842V113.836Z" fill="white"/>
<path d="M703.85 135.45C703.889 135.476 703.934 135.489 703.98 135.489C704.027 135.489 704.072 135.476 704.111 135.45C706.909 134.051 718.566 128.129 723.387 123.411C725.261 121.783 726.415 119.48 726.597 117.004C726.942 111.553 721.431 106.448 721.431 106.448C714.451 115.289 708.521 124.909 703.759 135.117C703.746 135.172 703.747 135.229 703.761 135.283C703.776 135.337 703.805 135.386 703.844 135.426L703.85 135.45ZM730.636 122.708C730.636 122.708 714.018 131.641 705.419 137.443C705.375 137.473 705.341 137.515 705.322 137.565C705.304 137.615 705.302 137.67 705.316 137.721C705.316 137.721 705.401 137.879 705.522 137.879C708.598 137.879 720.238 137.879 720.547 137.842C721.702 137.759 722.838 137.497 723.914 137.067C726.729 135.962 728.99 133.783 730.2 131.011C731.35 128.38 731.503 125.42 730.63 122.684L730.636 122.708ZM705.855 139.332C705.808 139.341 705.764 139.36 705.726 139.387C705.687 139.414 705.655 139.449 705.631 139.49C705.619 139.535 705.619 139.583 705.631 139.628C705.642 139.674 705.665 139.716 705.697 139.75C707.563 141.095 713.243 145.067 715.993 145.806C715.993 145.806 721.055 147.532 725.44 139.986L705.873 139.314L705.855 139.332ZM701.228 133.882C701.279 133.902 701.335 133.902 701.387 133.883C701.438 133.864 701.481 133.827 701.507 133.779C703.372 131.084 711.85 118.506 713.558 110.869C713.558 110.869 714.491 107.175 713.594 104.649C713.124 103.173 712.283 101.841 711.151 100.781C710.02 99.7206 708.637 98.9676 707.133 98.5934C707.133 98.5934 705.649 98.2119 704.056 97.9878C704.056 97.9878 698.254 105.449 701.083 133.64C701.077 133.687 701.088 133.735 701.113 133.776C701.138 133.817 701.177 133.848 701.222 133.864L701.228 133.882ZM694.742 98.006C693.894 98.0726 691.599 98.6116 691.599 98.6116C690.105 98.994 688.732 99.7506 687.611 100.81C686.49 101.87 685.658 103.197 685.192 104.668C684.241 107.623 685.192 110.887 685.192 110.887C686.918 118.554 695.414 131.181 697.249 133.827C697.37 133.967 697.473 133.912 697.473 133.912C697.526 133.897 697.573 133.865 697.607 133.822C697.64 133.778 697.659 133.725 697.661 133.67C700.495 105.479 694.724 98.0181 694.724 98.0181L694.742 98.006ZM693.452 137.746C693.555 137.588 693.385 137.455 693.385 137.455C684.804 131.653 668.15 122.739 668.15 122.739C667.6 124.43 667.447 126.225 667.703 127.985C667.958 129.745 668.617 131.423 669.626 132.887C670.635 134.352 671.969 135.564 673.522 136.43C675.076 137.295 676.808 137.791 678.585 137.879C678.875 137.933 690.206 137.879 693.246 137.879C693.328 137.866 693.402 137.823 693.452 137.758V137.746ZM693.161 139.502C693.142 139.449 693.107 139.403 693.06 139.372C693.013 139.34 692.957 139.324 692.901 139.326L673.346 139.998C675.472 143.783 679.045 146.715 682.757 145.818C685.331 145.176 691.133 141.119 693.052 139.762C693.21 139.641 693.155 139.538 693.155 139.52L693.161 139.502ZM694.972 135.481C695.006 135.452 695.03 135.412 695.04 135.369C695.05 135.325 695.045 135.279 695.027 135.238C690.273 124.989 684.334 115.332 677.331 106.466C677.331 106.466 671.772 111.753 672.165 117.052C672.258 118.274 672.591 119.466 673.145 120.559C673.699 121.652 674.463 122.625 675.393 123.423C680.238 128.153 691.993 134.13 694.718 135.499C694.762 135.516 694.81 135.52 694.856 135.51C694.902 135.501 694.945 135.478 694.978 135.444" fill="white"/>
</g>
<g clip-path="url(#clip4_1277_4585)">
<path d="M1068.27 101.87H1064.79V125.53H1068.27V101.87Z" fill="white"/>
<path d="M1074.17 121.252C1072.86 121.252 1071.81 122.3 1071.81 123.602C1071.81 124.903 1072.86 125.952 1074.17 125.952C1075.47 125.952 1076.52 124.903 1076.52 123.602C1076.52 122.3 1075.47 121.252 1074.17 121.252Z" fill="white"/>
<path d="M1083.32 117.29C1083.32 114.468 1085.02 112.049 1088.3 112.049H1090.38V108.754H1088.3C1085.73 108.754 1084.55 109.572 1083.36 110.931L1083.33 110.966V108.754H1079.88V125.514H1083.32C1083.32 125.503 1083.32 118.43 1083.32 117.29Z" fill="white"/>
<path d="M1061.01 108.754H1057.53V125.514H1061.01V108.754Z" fill="white"/>
<path d="M1059.27 105.98C1060.57 105.98 1061.62 104.932 1061.62 103.631C1061.62 102.329 1060.56 101.281 1059.27 101.281C1057.97 101.281 1056.92 102.329 1056.92 103.631C1056.92 104.932 1057.98 105.98 1059.27 105.98Z" fill="white"/>
<path d="M1050.33 110.453C1049 109.094 1046.94 108.334 1044.9 108.334C1040.04 108.334 1036.08 112.285 1036.08 117.146C1036.08 122.007 1040.04 125.958 1044.9 125.958C1046.94 125.958 1049.1 125.083 1050.33 123.7V125.532H1053.76V108.76H1050.33V110.453ZM1045.02 122.456C1042.02 122.456 1039.74 120.152 1039.74 117.146C1039.74 114.14 1042.02 111.859 1045.02 111.859C1048.02 111.859 1050.38 114.001 1050.38 117.146C1050.38 120.291 1048.02 122.456 1045.02 122.456Z" fill="white"/>
<path d="M1100.01 125.952C1101.57 125.952 1103.55 125.111 1104.8 123.683C1104.81 124.316 1104.8 124.892 1104.8 125.514H1108.22V118.2V108.754H1104.79V117.958C1104.79 120.342 1102.97 122.566 1100.23 122.566C1097.85 122.566 1096.15 120.838 1096.15 118.361V108.766H1092.72V118.649C1092.73 123.072 1095.11 125.952 1100.01 125.952Z" fill="white"/>
<path d="M1026.03 108.334C1023.75 108.334 1021.51 109.371 1020.15 111.006C1018.91 109.359 1017.1 108.334 1014.66 108.334C1012.68 108.334 1011.26 109.221 1010.5 109.935V108.76H1007.08V125.52H1010.5V115.718C1010.5 113.529 1012.29 111.755 1014.47 111.755C1016.65 111.755 1018.43 113.541 1018.43 115.718V125.52H1021.86V115.718C1021.86 113.529 1023.64 111.755 1025.82 111.755C1028 111.755 1029.79 113.541 1029.79 115.718V125.52H1033.21V115.718C1033.24 111.225 1030.32 108.334 1026.03 108.334Z" fill="white"/>
<path d="M1071.25 133.267L1071.23 133.29V131.989H1070.22H1069.21H1069.04V141.826H1069.21H1071.23C1071.23 141.814 1071.23 137.886 1071.23 137.218C1071.23 135.56 1072.22 134.143 1074.14 134.143H1075.36V131.989H1074.14C1072.65 131.989 1071.95 132.473 1071.25 133.267Z" fill="white"/>
<path d="M1094.8 137.382C1094.8 138.96 1093.54 139.904 1092.3 139.904C1091 139.904 1090.08 138.96 1090.08 137.612V132.002H1087.88V137.773C1087.88 140.503 1089.44 142.082 1092.16 142.082C1093.05 142.082 1094.1 141.632 1094.79 140.953C1094.79 141.125 1094.79 141.298 1094.79 141.471V141.84H1096.98V132.002H1094.78L1094.8 137.382Z" fill="white"/>
<path d="M1081.06 131.749C1078.21 131.749 1075.9 134.064 1075.9 136.909C1075.9 139.754 1078.21 142.069 1081.06 142.069C1083.91 142.069 1086.23 139.754 1086.23 136.909C1086.23 134.064 1083.92 131.749 1081.06 131.749ZM1081.06 139.881C1079.42 139.881 1078.09 138.545 1078.09 136.909C1078.09 135.273 1079.42 133.937 1081.06 133.937C1082.7 133.937 1084.04 135.273 1084.04 136.909C1084.04 138.545 1082.71 139.881 1081.06 139.881Z" fill="white"/>
<path d="M1104.37 131.749C1103.24 131.749 1102.15 132.14 1101.38 132.808V131.99H1099.19V145.214H1101.38V140.952C1102.11 141.643 1103.26 142.081 1104.37 142.081C1107.22 142.081 1109.54 139.766 1109.54 136.921C1109.54 134.064 1107.22 131.749 1104.37 131.749ZM1104.3 139.835C1102.59 139.835 1101.34 138.602 1101.34 136.909C1101.34 135.216 1102.59 133.995 1104.3 133.995C1105.96 133.995 1107.22 135.25 1107.22 136.909C1107.22 138.579 1105.96 139.835 1104.3 139.835Z" fill="white"/>
<path d="M1064.66 132.808C1063.89 132.14 1062.8 131.749 1061.67 131.749C1058.82 131.749 1056.5 134.064 1056.5 136.909C1056.5 139.754 1058.82 142.069 1061.67 142.069C1062.79 142.069 1063.93 141.632 1064.66 140.941V141.136C1064.63 143.152 1063.65 144.177 1061.74 144.177H1061.71C1060.63 144.177 1059.67 143.763 1058.78 142.899L1058.7 142.818L1057.11 144.339L1057.18 144.419C1058 145.375 1059.66 146.47 1061.66 146.47C1061.69 146.47 1061.72 146.47 1061.76 146.47C1063.63 146.435 1066.76 145.709 1066.86 141.217V131.979H1064.66V132.808ZM1061.74 139.835C1060.08 139.835 1058.82 138.579 1058.82 136.909C1058.82 135.25 1060.08 133.995 1061.74 133.995C1063.45 133.995 1064.7 135.216 1064.7 136.909C1064.69 138.602 1063.45 139.835 1061.74 139.835Z" fill="white"/>
<path d="M984.017 116.843C984.017 119.896 981.538 122.372 978.483 122.372C975.428 122.372 972.949 119.896 972.949 116.843C972.949 113.791 975.428 111.314 978.483 111.314C981.538 111.314 984.017 113.802 984.017 116.843ZM978.483 98.4707C968.337 98.4707 960.082 106.718 960.082 116.855C960.082 126.992 968.337 135.228 978.483 135.228C982.196 135.228 985.781 134.122 988.848 132.025L988.906 131.991L986.427 129.111L986.381 129.134C984.017 130.643 981.296 131.449 978.483 131.449C970.424 131.449 963.864 124.895 963.864 116.843C963.864 108.792 970.424 102.237 978.483 102.237C986.542 102.237 993.103 108.792 993.103 116.843C993.103 117.892 992.987 118.94 992.757 119.988C992.295 121.889 990.97 122.465 989.967 122.384C988.963 122.303 987.787 121.589 987.776 119.838V116.843C987.776 111.717 983.602 107.548 978.472 107.548C973.341 107.548 969.167 111.717 969.167 116.843C969.167 121.969 973.341 126.139 978.472 126.139C980.962 126.139 983.302 125.16 985.066 123.398C986.093 124.987 987.764 125.989 989.667 126.139C989.828 126.151 990.001 126.162 990.163 126.162C991.5 126.162 992.826 125.713 993.898 124.907C995.005 124.066 995.824 122.856 996.273 121.405C996.342 121.175 996.481 120.633 996.481 120.633V120.61C996.746 119.447 996.873 118.283 996.873 116.843C996.884 106.718 988.629 98.4707 978.483 98.4707Z" fill="white"/>
</g>
<defs>
<clipPath id="clip0_1277_4585">
<rect width="194" height="48" fill="white" transform="translate(170.26)"/>
</clipPath>
<clipPath id="clip1_1277_4585">
<rect width="150" height="48" fill="white" transform="translate(422.52)"/>
</clipPath>
<clipPath id="clip2_1277_4585">
<rect width="219.361" height="48" fill="white" transform="translate(890.639)"/>
</clipPath>
<clipPath id="clip3_1277_4585">
<rect width="219.361" height="48" fill="white" transform="translate(667.574 98)"/>
</clipPath>
<clipPath id="clip4_1277_4585">
<rect width="150" height="48" fill="white" transform="translate(960 98)"/>
</clipPath>
</defs>
</svg>
