<svg width="22" height="23" viewBox="0 0 22 23" fill="none" xmlns="http://www.w3.org/2000/svg">
<path d="M22 20.0556V2.94444C22 1.6 20.8963 0.5 19.5494 0.5H2.45056C1.045 0.5 0 1.54256 0 2.94444V20.0556C0 21.4587 1.045 22.5 2.45056 22.5H19.5494C20.198 22.499 20.8198 22.2414 21.279 21.7833C21.7382 21.3253 21.9974 20.7041 22 20.0556ZM17.336 13.4641C17.336 13.4641 18.7196 14.8293 19.0606 15.4624C19.0703 15.4759 19.074 15.4881 19.0777 15.493C19.2158 15.7252 19.2512 15.9086 19.1816 16.043C19.0667 16.2667 18.6756 16.3791 18.5423 16.3889H16.0991C15.928 16.3889 15.5736 16.3449 15.1433 16.0479C14.8133 15.8181 14.487 15.438 14.1692 15.0677C13.695 14.5177 13.2843 14.041 12.8712 14.041C12.8188 14.0409 12.7668 14.0496 12.7172 14.0667C12.4031 14.1669 12.0047 14.613 12.0047 15.8047C12.0047 16.1774 11.7113 16.3901 11.5036 16.3901H10.384C10.0027 16.3901 8.01656 16.2569 6.25778 14.4003C4.09933 12.127 2.16089 7.56689 2.14378 7.52656C2.02156 7.232 2.27456 7.07189 2.54956 7.07189H5.01844C5.34967 7.07189 5.456 7.27233 5.53178 7.452C5.61733 7.65611 5.94 8.47989 6.468 9.40633C7.32722 10.9133 7.85644 11.5269 8.27811 11.5269C8.35696 11.5264 8.43438 11.5058 8.503 11.467C9.05422 11.1627 8.95156 9.19733 8.92711 8.79156C8.92711 8.71456 8.92589 7.91278 8.64478 7.52778C8.44189 7.24911 8.09844 7.14278 7.89067 7.10244C7.97539 6.9857 8.08688 6.89098 8.21578 6.82622C8.59344 6.638 9.27422 6.61111 9.95133 6.61111H10.3278C11.0623 6.62089 11.253 6.66856 11.5182 6.73578C12.0548 6.86411 12.0658 7.21244 12.0181 8.398C12.0047 8.73533 11.99 9.11789 11.99 9.56644C11.99 9.663 11.9863 9.76933 11.9863 9.87933C11.9692 10.4856 11.9497 11.1712 12.3774 11.4523C12.4328 11.487 12.4967 11.5056 12.562 11.5061C12.7111 11.5061 13.1572 11.5061 14.366 9.432C14.8977 8.51655 15.3071 7.43611 15.3352 7.35544C15.3779 7.26823 15.4398 7.19177 15.5161 7.13178C15.5787 7.09926 15.6485 7.08288 15.719 7.08411H18.6218C18.9396 7.08411 19.1547 7.13178 19.195 7.25278C19.2647 7.44711 19.1816 8.03989 17.8554 9.83167L17.2651 10.6139C16.0624 12.1881 16.0624 12.2688 17.336 13.4641V13.4641Z" fill="white"/>
</svg>
